<svg width="20" height="20" viewBox="0 0 20 20" fill="none" xmlns="http://www.w3.org/2000/svg">
<g id="heart" clip-path="url(#clip0_141_146)">
<path id="Primary" d="M1.85938 11.7339L8.91797 18.3237C9.21094 18.5971 9.59766 18.7495 10 18.7495C10.4023 18.7495 10.7891 18.5971 11.082 18.3237L18.1406 11.7339C19.3281 10.6284 20 9.0776 20 7.45651V7.22995C20 4.49948 18.0273 2.17135 15.3359 1.72213C13.5547 1.42526 11.7422 2.00729 10.4688 3.28073L10 3.74948L9.53125 3.28073C8.25781 2.00729 6.44531 1.42526 4.66406 1.72213C1.97266 2.17135 0 4.49948 0 7.22995V7.45651C0 9.0776 0.671875 10.6284 1.85938 11.7339Z" fill="#DC8690"/>
</g>
<defs>
<clipPath id="clip0_141_146">
<rect width="20" height="20" fill="white"/>
</clipPath>
</defs>
</svg>
