<svg width="24" height="24" viewBox="0 0 24 24" fill="none" xmlns="http://www.w3.org/2000/svg">
<g clip-path="url(#clip0_307_9)">
<path d="M19.5 9.75C19.5 11.9016 18.8016 13.8891 17.625 15.5016L23.5594 21.4406C24.1453 22.0266 24.1453 22.9781 23.5594 23.5641C22.9734 24.15 22.0219 24.15 21.4359 23.5641L15.5016 17.625C13.8891 18.8063 11.9016 19.5 9.75 19.5C4.36406 19.5 0 15.1359 0 9.75C0 4.36406 4.36406 0 9.75 0C15.1359 0 19.5 4.36406 19.5 9.75ZM6.375 8.625C5.75156 8.625 5.25 9.12656 5.25 9.75C5.25 10.3734 5.75156 10.875 6.375 10.875H13.125C13.7484 10.875 14.25 10.3734 14.25 9.75C14.25 9.12656 13.7484 8.625 13.125 8.625H6.375Z" fill="#465973"/>
</g>
<defs>
<clipPath id="clip0_307_9">
<rect width="24" height="24" fill="white"/>
</clipPath>
</defs>
</svg>
