<svg width="20" height="21" viewBox="0 0 20 21" fill="none" xmlns="http://www.w3.org/2000/svg">
<path d="M16.2508 8.47684C16.2508 10.2695 15.6687 11.9256 14.6882 13.2691L19.6338 18.2176C20.1221 18.7058 20.1221 19.4987 19.6338 19.9869C19.1455 20.4751 18.3525 20.4751 17.8642 19.9869L12.9186 15.0384C11.5748 16.0226 9.91845 16.6006 8.1254 16.6006C3.6369 16.6006 0 12.9645 0 8.47684C0 3.98921 3.6369 0.353027 8.1254 0.353027C12.6139 0.353027 16.2508 3.98921 16.2508 8.47684ZM8.1254 14.101C8.86412 14.101 9.59561 13.9555 10.2781 13.6729C10.9606 13.3903 11.5807 12.976 12.1031 12.4537C12.6254 11.9315 13.0398 11.3115 13.3225 10.6291C13.6052 9.94676 13.7507 9.21541 13.7507 8.47684C13.7507 7.73826 13.6052 7.00691 13.3225 6.32456C13.0398 5.6422 12.6254 5.0222 12.1031 4.49994C11.5807 3.97769 10.9606 3.56342 10.2781 3.28078C9.59561 2.99813 8.86412 2.85266 8.1254 2.85266C7.38668 2.85266 6.65519 2.99813 5.9727 3.28078C5.29021 3.56342 4.67008 3.97769 4.14773 4.49994C3.62537 5.0222 3.21102 5.6422 2.92832 6.32456C2.64562 7.00691 2.50012 7.73826 2.50012 8.47684C2.50012 9.21541 2.64562 9.94676 2.92832 10.6291C3.21102 11.3115 3.62537 11.9315 4.14773 12.4537C4.67008 12.976 5.29021 13.3903 5.9727 13.6729C6.65519 13.9555 7.38668 14.101 8.1254 14.101Z" fill="#465973"/>
</svg>
