<svg width="29" height="30" viewBox="0 0 29 30" fill="none" xmlns="http://www.w3.org/2000/svg">
<path d="M0.5 8.66667C0.5 6.92005 1.89514 5.5 3.61111 5.5H16.0556C17.7715 5.5 19.1667 6.92005 19.1667 8.66667V21.3333C19.1667 23.0799 17.7715 24.5 16.0556 24.5H3.61111C1.89514 24.5 0.5 23.0799 0.5 21.3333V8.66667ZM27.6785 7.27135C28.184 7.54844 28.5 8.08281 28.5 8.66667V21.3333C28.5 21.9172 28.184 22.4516 27.6785 22.7286C27.1729 23.0057 26.5604 22.976 26.0792 22.6495L21.4125 19.4828L20.7222 19.0128V18.1667V11.8333V10.9872L21.4125 10.5172L26.0792 7.35052C26.5556 7.02891 27.1681 6.99427 27.6785 7.27135Z" fill="#465973"/>
</svg>
