<svg width="29" height="20" viewBox="0 0 29 20" fill="none" xmlns="http://www.w3.org/2000/svg">
<path id="Primary" d="M0.661011 3.35307C0.661011 1.60645 2.05615 0.186401 3.77212 0.186401H16.2166C17.9325 0.186401 19.3277 1.60645 19.3277 3.35307V16.0197C19.3277 17.7663 17.9325 19.1864 16.2166 19.1864H3.77212C2.05615 19.1864 0.661011 17.7663 0.661011 16.0197V3.35307ZM27.8395 1.95776C28.345 2.23484 28.661 2.76921 28.661 3.35307V16.0197C28.661 16.6036 28.345 17.138 27.8395 17.415C27.3339 17.6921 26.7214 17.6624 26.2402 17.3359L21.5735 14.1692L20.8832 13.6992V12.8531V6.51973V5.67364L21.5735 5.20359L26.2402 2.03692C26.7166 1.71531 27.3291 1.68067 27.8395 1.95776Z" fill="black"/>
</svg>
