<?xml version="1.0" standalone="no"?>
<!DOCTYPE svg PUBLIC "-//W3C//DTD SVG 20010904//EN"
 "http://www.w3.org/TR/2001/REC-SVG-20010904/DTD/svg10.dtd">
<svg version="1.0" xmlns="http://www.w3.org/2000/svg"
 width="90.000000pt" height="90.000000pt" viewBox="0 0 90.000000 90.000000"
 preserveAspectRatio="xMidYMid meet">
<metadata>
Created by potrace 1.10, written by Peter Selinger 2001-2011
</metadata>
<g transform="translate(0.000000,90.000000) scale(0.100000,-0.100000)"
fill="#000000" stroke="none">
<path d="M80 700 c-19 -19 -20 -33 -20 -250 0 -217 1 -231 20 -250 19 -19 33
-20 318 -20 254 0 301 2 320 16 12 8 57 61 99 117 103 135 103 139 0 274 -42
56 -87 109 -99 117 -19 14 -66 16 -320 16 -285 0 -299 -1 -318 -20z m700 -220
c11 -11 20 -24 20 -30 0 -13 -37 -50 -50 -50 -13 0 -50 37 -50 50 0 13 37 50
50 50 6 0 19 -9 30 -20z"/>
</g>
</svg>
