<svg width="29" height="29" viewBox="0 0 29 29" fill="none" xmlns="http://www.w3.org/2000/svg">
<g clip-path="url(#clip0_305_7)">
<path d="M0 3.18135V13.0899C0 14.2167 0.444165 15.297 1.23968 16.0923L12.9073 27.7573C14.5646 29.4142 17.2495 29.4142 18.9068 27.7573L27.757 18.9092C29.4143 17.2522 29.4143 14.5679 27.757 12.911L16.0894 1.24603C15.2939 0.450691 14.2133 0.00662771 13.0863 0.00662771L3.18208 0C1.42531 0 0 1.42498 0 3.18135ZM7.42485 5.30225C7.98748 5.30225 8.52706 5.5257 8.92489 5.92345C9.32273 6.32119 9.54623 6.86065 9.54623 7.42315C9.54623 7.98565 9.32273 8.52511 8.92489 8.92286C8.52706 9.3206 7.98748 9.54405 7.42485 9.54405C6.86222 9.54405 6.32264 9.3206 5.9248 8.92286C5.52697 8.52511 5.30346 7.98565 5.30346 7.42315C5.30346 6.86065 5.52697 6.32119 5.9248 5.92345C6.32264 5.5257 6.86222 5.30225 7.42485 5.30225Z" fill="#465973"/>
</g>
<defs>
<clipPath id="clip0_305_7">
<rect width="29" height="29" fill="white"/>
</clipPath>
</defs>
</svg>
